HIERARCHY
ROOT Hips
{
	OFFSET	0.00	0.00	0.00
	CHANNELS 6 Xposition Yposition Zposition Zrotation Xrotation Yrotation
	JOINT LeftUpLeg
	{
		OFFSET	 0.126116	-0.014019	-0.065224
		CHANNELS 3 Zrotation Xrotation Yrotation
		JOINT LeftLeg
		{
			OFFSET	 0.000000	 0.000000	 0.569914
			CHANNELS 3 Zrotation Xrotation Yrotation
			JOINT LeftFoot
			{
				OFFSET	 0.000000	 0.000000	 0.544423
				CHANNELS 3 Zrotation Xrotation Yrotation
				JOINT LeftToeBase
				{
					OFFSET	 0.000000	 0.000000	 0.207117
					CHANNELS 3 Zrotation Xrotation Yrotation
					End Site
					{
						OFFSET	 0.000000	 0.000000	 0.207117
					}
				}
			}
		}
	}
	JOINT RightUpLeg
	{
		OFFSET	-0.124023	-0.008373	-0.065224
		CHANNELS 3 Zrotation Xrotation Yrotation
		JOINT RightLeg
		{
			OFFSET	 0.000000	 0.000000	 0.570047
			CHANNELS 3 Zrotation Xrotation Yrotation
			JOINT RightFoot
			{
				OFFSET	 0.000000	 0.000000	 0.544354
				CHANNELS 3 Zrotation Xrotation Yrotation
				JOINT RightToeBase
				{
					OFFSET	 0.000000	 0.000000	 0.207540
					CHANNELS 3 Zrotation Xrotation Yrotation
					End Site
					{
						OFFSET	 0.000000	 0.000000	 0.207540
					}
				}
			}
		}
	}
	JOINT Spine
	{
		OFFSET	 0.000184	-0.007763	 0.117403
		CHANNELS 3 Zrotation Xrotation Yrotation
		JOINT Spine1
		{
			OFFSET	 0.000000	 0.000000	 0.137269
			CHANNELS 3 Zrotation Xrotation Yrotation
			JOINT Spine2
			{
				OFFSET	 0.000000	 0.000000	 0.156879
				CHANNELS 3 Zrotation Xrotation Yrotation
				JOINT LeftShoulder
				{
					OFFSET	 0.080501	-0.002496	 0.160144
					CHANNELS 3 Zrotation Xrotation Yrotation
					JOINT LeftArm
					{
						OFFSET	 0.000000	 0.000000	 0.164363
						CHANNELS 3 Zrotation Xrotation Yrotation
						JOINT LeftForeArm
						{
							OFFSET	 0.000000	 0.000000	 0.364576
							CHANNELS 3 Zrotation Xrotation Yrotation
							JOINT LeftHand
							{
								OFFSET	 0.000000	 0.000000	 0.360812
								CHANNELS 3 Zrotation Xrotation Yrotation
								JOINT LeftHandIndex1
								{
									OFFSET	 0.000000	 0.000000	 0.086006
									CHANNELS 3 Zrotation Xrotation Yrotation
									JOINT LeftHandIndex2
									{
										OFFSET	 0.000000	 0.000000	 0.047236
										CHANNELS 3 Zrotation Xrotation Yrotation
										JOINT LeftHandIndex3
										{
											OFFSET	-0.004284	-0.000551	 0.038166
											CHANNELS 3 Zrotation Xrotation Yrotation
											End Site
											{
												OFFSET	-0.004284	-0.000551	 0.038166
											}
										}
									}
								}
							}
						}
					}
				}
				JOINT Neck
				{
					OFFSET	 0.000000	 0.000000	 0.176489
					CHANNELS 3 Zrotation Xrotation Yrotation
					JOINT Head
					{
						OFFSET	 0.000000	-0.001747	 0.077940
						CHANNELS 3 Zrotation Xrotation Yrotation
						End Site
						{
							OFFSET	 0.000000	-0.001747	 0.077940
						}
					}
				}
				JOINT RightShoulder
				{
					OFFSET	-0.080363	 0.000306	 0.159706
					CHANNELS 3 Zrotation Xrotation Yrotation
					JOINT RightArm
					{
						OFFSET	 0.000000	 0.000000	 0.164196
						CHANNELS 3 Zrotation Xrotation Yrotation
						JOINT RightForeArm
						{
							OFFSET	 0.000000	 0.000000	 0.365611
							CHANNELS 3 Zrotation Xrotation Yrotation
							JOINT RightHand
							{
								OFFSET	 0.000000	 0.000000	 0.360648
								CHANNELS 3 Zrotation Xrotation Yrotation
								JOINT RightHandIndex1
								{
									OFFSET	 0.000000	 0.000000	 0.069977
									CHANNELS 3 Zrotation Xrotation Yrotation
									JOINT RightHandIndex2
									{
										OFFSET	 0.000000	 0.000000	 0.052305
										CHANNELS 3 Zrotation Xrotation Yrotation
										JOINT RightHandIndex3
										{
											OFFSET	 0.009002	-0.000782	 0.042196
											CHANNELS 3 Zrotation Xrotation Yrotation
											End Site
											{
												OFFSET	 0.009002	-0.000782	 0.042196
											}
										}
									}
								}
							}
						}
					}
				}
			}
		}
	}
}
MOTION
Frames:    10
Frame Time: 0.03333334
-0.490411	-6.215947	 0.867822	-12.502270	 8.046863	 1.740063	 4.533276	-22.150510	 174.164600	-1.681464	-40.217140	-0.217730	 0.138731	 84.700650	-0.632913	-2.385752	 28.472250	-0.000416	-2.466513	-23.037570	-178.760500	-0.115692	-41.059480	 0.015227	-0.293991	 85.615010	 0.556401	 2.407688	 17.475080	-0.222795	-1.778394	 9.153388	-0.305464	-2.400102	 7.052070	-2.281071	-2.645772	 4.608516	-0.068683	-115.681300	 89.396720	-153.538800	 56.020500	 59.754930	-78.121140	-3.651171	-4.348129	-20.939470	 6.427259	-2.196923	-5.337472	-3.812334	 37.924440	-2.927599	-2.450526	 36.184240	 0.754587	-1.378229	 35.397820	-2.634230	 0.455511	 2.618153	-0.623602	-0.118050	 7.540316	-0.022665	 94.718990	 86.903770	 171.574600	-53.464280	 70.120350	 71.766370	-3.209786	-12.976780	 25.894520	-23.985040	-3.186991	 9.584322	 6.437017	 35.671460	-0.771858	 2.830251	 35.756010	-7.813440	-2.350882	 35.473990	 5.254307
-0.489020	-6.214221	 0.865127	-12.557660	 8.033604	 1.828269	 4.512555	-22.822570	 174.068100	-1.781020	-41.225460	-0.316628	 0.191379	 85.015520	-0.778416	-2.385221	 28.589550	-0.002955	-2.427064	-23.565220	-178.745100	-0.064208	-41.883010	 0.094865	-0.668141	 85.879350	 1.019020	 2.407646	 17.952290	-0.213462	-1.768016	 9.353897	-0.384885	-2.393103	 6.957570	-2.329219	-2.660862	 4.464098	-0.072439	-115.137900	 89.370680	-154.022900	 55.437530	 58.517670	-77.608030	-3.659024	-4.029256	-21.800950	 5.245883	-2.185639	-5.346108	-3.812334	 37.924440	-2.927599	-2.450526	 36.184240	 0.754587	-1.378229	 35.397820	-2.634230	 0.429927	 2.354300	-0.572479	-0.124325	 7.517800	-0.133341	 94.735690	 86.883910	 171.515900	-53.054340	 69.182320	 71.857210	-3.270696	-12.995960	 26.594170	-23.465140	-3.184853	 9.587639	 6.437017	 35.671460	-0.771858	 2.830251	 35.756010	-7.813440	-2.350882	 35.473990	 5.254307
-0.487295	-6.211538	 0.861592	-12.666520	 8.082397	 1.849598	 4.602896	-23.642250	 174.020500	-1.877222	-42.415140	-0.348388	 0.475938	 85.359240	-1.073575	-2.384967	 28.646450	-0.004189	-2.402886	-24.316560	-178.664300	-0.057205	-42.952120	 0.145928	-1.064893	 86.161000	 1.459694	 2.407548	 18.349480	-0.205671	-1.742703	 9.634786	-0.403425	-2.388197	 6.827274	-2.347011	-2.692360	 4.281659	-0.077592	-114.153500	 89.322470	-154.907200	 54.494920	 57.569810	-77.115750	-3.221235	-4.095887	-22.852640	 5.063825	-2.164099	-5.351897	-3.812334	 37.924440	-2.927599	-2.450526	 36.184240	 0.754587	-1.378229	 35.397820	-2.634230	 0.394839	 2.007982	-0.551554	-0.159141	 7.513206	-0.120678	 94.779350	 86.862630	 171.408200	-52.294910	 68.167350	 71.737890	-3.317635	-13.155660	 27.584790	-23.012380	-3.194081	 9.577929	 6.437017	 35.671460	-0.771858	 2.830251	 35.756010	-7.813440	-2.350882	 35.473990	 5.254307
-0.484854	-6.206653	 0.856087	-12.828540	 8.230389	 1.841128	 4.747715	-24.893150	 173.994300	-2.028125	-44.167730	-0.390355	 0.840941	 85.850460	-1.444949	-2.384349	 28.782910	-0.007144	-2.359582	-25.696100	-178.550300	-0.118536	-44.616230	 0.175897	-1.624238	 86.558670	 2.025780	 2.407224	 19.071760	-0.191463	-1.741205	 10.075480	-0.402161	-2.395159	 6.585933	-2.354246	-2.700379	 3.981743	-0.084905	-112.907600	 89.255330	-156.022200	 53.075180	 56.613880	-76.716030	-3.128256	-4.228957	-24.606690	 4.849367	-2.137248	-5.358660	-3.812334	 37.924440	-2.927599	-2.450526	 36.184240	 0.754587	-1.378229	 35.397820	-2.634230	 0.377244	 1.529486	-0.550744	-0.170793	 7.424869	 0.021436	 94.841970	 86.807210	 171.213100	-51.191800	 66.905780	 71.883390	-3.182093	-13.449630	 29.018640	-22.523520	-3.187665	 9.586267	 6.437017	 35.671460	-0.771858	 2.830251	 35.756010	-7.813440	-2.350882	 35.473990	 5.254307
-0.481492	-6.198870	 0.848664	-13.063750	 8.593312	 1.700606	 4.801297	-26.847520	 174.093400	-2.336811	-46.551240	-0.601427	 1.064427	 86.515360	-1.817561	-2.383201	 29.030200	-0.012528	-2.228601	-27.737050	-178.454100	-0.149230	-46.957420	 0.294046	-2.100141	 87.095390	 2.573935	 2.406441	 20.093050	-0.171255	-1.739886	 10.757600	-0.309378	-2.379315	 6.176021	-2.315161	-2.647702	 3.481291	-0.094825	-112.129800	 89.174340	-156.580900	 51.265520	 55.684120	-76.324010	-3.657030	-4.267909	-27.195010	 4.252162	-2.110762	-5.365466	-3.812334	 37.924440	-2.927599	-2.450526	 36.184240	 0.754587	-1.378229	 35.397820	-2.634230	 0.416409	 0.805709	-0.602481	-0.134532	 7.201502	 0.317382	 94.896650	 86.686610	 170.920800	-49.645980	 65.601100	 72.242160	-2.677082	-13.822670	 30.783080	-22.014110	-3.197267	 9.576690	 6.437017	 35.671460	-0.771858	 2.830251	 35.756010	-7.813440	-2.350882	 35.473990	 5.254307
-0.477653	-6.187613	 0.838793	-13.406150	 9.073257	 1.699722	 4.791242	-29.622080	 173.953100	-2.733021	-49.768440	-0.944788	 1.672799	 87.422840	-2.642294	-2.381462	 29.391990	-0.020430	-2.098618	-30.482390	-178.373500	-0.003689	-50.173760	 0.565592	-3.185616	 87.825250	 3.835005	 2.405182	 21.169850	-0.149789	-1.672947	 11.852340	-0.271775	-2.289759	 5.562542	-2.360129	-2.543937	 2.676751	-0.108968	-112.094300	 89.091080	-156.289200	 49.051580	 54.829570	-75.854290	-4.368433	-4.357714	-30.312950	 3.757797	-2.108930	-5.366547	-3.812334	 37.924440	-2.927599	-2.450526	 36.184240	 0.754587	-1.378229	 35.397820	-2.634230	 0.513888	-0.132703	-0.725436	-0.074307	 6.604568	 0.784533	 94.845730	 86.471860	 170.649300	-47.439470	 64.144710	 72.273730	-1.982051	-14.209210	 32.845970	-21.422020	-3.186377	 9.589333	 6.437017	 35.671460	-0.771858	 2.830251	 35.756010	-7.813440	-2.350882	 35.473990	 5.254307
-0.473563	-6.173691	 0.826524	-13.783660	 9.702267	 1.809294	 4.675385	-33.143080	 173.626400	-3.387905	-53.786570	-1.588371	 4.667619	 88.540490	-6.006897	-2.379537	 29.780120	-0.028952	-2.017663	-34.068080	-178.341600	 0.155130	-54.055300	 0.837297	-7.416533	 88.747580	 8.197926	 2.403316	 22.342640	-0.126188	-1.582816	 13.135210	-0.264539	-2.157572	 4.896784	-2.485998	-2.398868	 1.687132	-0.123441	-112.640400	 89.028030	-155.395100	 46.730310	 54.401880	-75.145250	-5.863694	-4.106471	-33.348900	 2.762628	-2.112425	-5.367460	-3.812334	 37.924440	-2.927599	-2.450526	 36.184240	 0.754587	-1.378229	 35.397820	-2.634230	 0.653342	-1.130564	-0.899242	 0.024882	 5.692420	 1.321294	 94.687810	 86.212140	 170.491300	-44.682500	 62.716040	 71.583160	-1.224381	-14.506130	 34.900900	-20.782370	-3.197150	 9.579820	 6.437017	 35.671460	-0.771858	 2.830251	 35.756010	-7.813440	-2.350882	 35.473990	 5.254307
-0.469246	-6.159351	 0.812541	-14.181260	 10.643920	 1.935311	 4.374180	-37.187790	 173.217600	-4.442988	-58.107810	-2.715211	 23.731030	 89.699990	-25.595600	-2.377564	 30.163300	-0.037414	-1.954790	-38.192360	-178.345300	 0.369100	-58.173430	 1.153059	-41.177610	 89.771860	 42.062170	 2.401483	 23.255850	-0.107643	-1.486077	 14.290300	-0.281424	-2.021592	 4.238757	-2.587884	-2.249244	 0.729192	-0.134493	-113.462400	 88.985860	-154.252300	 44.982520	 54.589990	-74.275230	-7.618459	-3.653724	-35.715030	 1.661526	-2.096134	-5.370981	-3.812334	 37.924440	-2.927599	-2.450526	 36.184240	 0.754587	-1.378229	 35.397820	-2.634230	 0.815231	-2.124878	-1.138243	 0.118966	 4.839171	 1.976518	 94.497530	 85.962790	 170.417400	-42.532820	 62.270450	 70.600310	-0.320144	-14.703550	 36.262140	-20.410070	-3.191052	 9.586448	 6.437017	 35.671460	-0.771858	 2.830251	 35.756010	-7.813440	-2.350882	 35.473990	 5.254307
-0.464550	-6.144300	 0.794853	-14.837170	 11.799570	 2.128986	 4.070115	-41.715990	 172.774500	-6.083657	-62.947150	-4.407176	 171.815100	 88.975490	-174.250800	-2.374108	 30.801930	-0.051620	-1.701163	-42.893980	-178.293900	 0.729477	-62.890220	 1.751257	-171.936100	 88.977220	 173.007200	 2.399094	 24.253460	-0.087199	-1.256129	 15.521960	-0.195941	-1.787980	 3.645628	-2.638954	-2.113125	-0.245347	-0.144250	-114.569100	 88.956200	-152.814600	 43.650230	 55.354690	-72.396520	-9.007896	-3.286153	-37.235190	 0.895513	-2.112226	-5.370390	-3.812334	 37.924440	-2.927599	-2.450526	 36.184240	 0.754587	-1.378229	 35.397820	-2.634230	 0.996174	-3.141022	-1.435597	 0.167424	 3.947261	 2.568949	 94.262310	 85.729640	 170.477000	-40.763820	 62.842400	 68.635430	 0.791089	-14.685980	 36.947430	-20.067870	-3.187535	 9.590231	 6.437017	 35.671460	-0.771858	 2.830251	 35.756010	-7.813440	-2.350882	 35.473990	 5.254307
-0.460113	-6.130128	 0.774336	-15.458890	 13.035440	 2.278200	 3.596515	-46.308940	 172.231900	-8.720161	-67.745210	-7.176843	 175.004500	 87.775160	-178.138900	-2.369315	 31.629230	-0.070251	-1.405094	-47.623240	-178.292000	 1.586220	-67.656880	 2.857295	-176.588800	 87.796910	 177.949900	 2.396542	 25.167500	-0.068280	-1.071571	 16.720780	-0.010296	-1.591286	 3.124945	-2.661430	-1.979372	-1.189304	-0.151340	-115.715700	 88.941310	-151.392000	 43.167370	 56.568410	-70.298100	-9.914671	-3.060801	-37.181810	 0.530225	-2.112684	-5.370884	-3.812334	 37.924440	-2.927599	-2.450526	 36.184240	 0.754587	-1.378229	 35.397820	-2.634230	 1.153014	-4.169357	-1.680579	 0.256910	 3.110390	 3.040458	 94.056250	 85.521760	 170.537200	-39.806260	 64.134980	 66.065270	 1.593180	-14.423880	 36.626950	-19.840390	-3.190168	 9.588209	 6.437017	 35.671460	-0.771858	 2.830251	 35.756010	-7.813440	-2.350882	 35.473990	 5.254307
